<svg width="44" height="22" viewBox="0 0 44 22" fill="none" xmlns="http://www.w3.org/2000/svg">
<path d="M1.37281 17.5431C1.17609 17.2268 0.913795 16.7215 0.751787 16.3473C-0.193255 14.1563 -0.235685 11.8882 0.558922 9.71272C1.43453 7.32504 3.1086 5.50053 5.27256 4.56706C7.99197 3.39829 10.9968 3.62588 13.6044 5.17266C15.2591 6.12156 16.4318 7.58734 17.3228 9.66257C17.4347 9.92873 17.535 10.2103 17.6353 10.4533L1.37281 17.5431ZM6.80392 8.08879C4.8714 8.91811 3.87621 10.731 4.08451 12.8526L12.262 9.33084C10.8541 7.67991 9.02573 7.13217 6.80392 8.08879ZM13.2803 15.7494C13.2765 15.7494 13.2765 15.7533 13.2765 15.7533L13.1068 15.6376C12.6169 16.4283 11.857 17.0725 10.8965 17.4891C9.06816 18.2837 7.3748 18.0792 6.15588 17.0108L6.04402 17.1805C6.04402 17.1805 6.04402 17.1766 6.04016 17.1766L3.96493 20.2818C4.48181 20.6405 5.03341 20.9414 5.612 21.1844C7.90325 22.1371 10.2485 22.0908 12.559 21.0879C14.2292 20.3628 15.5407 19.2596 16.4356 17.8594L13.2803 15.7494ZM23.3171 0V17.2576L26.0018 18.3454L24.4781 21.9018L21.5157 20.6675C20.8523 20.3782 20.3971 19.9385 20.0576 19.4409C19.7298 18.9356 19.4868 18.2374 19.4868 17.3039V0H23.3171ZM30.268 12.8641C30.268 11.3945 30.9198 10.0753 31.9459 9.18041L29.1918 6.10999C27.3248 7.76092 26.1483 10.1717 26.1483 12.8564C26.1445 15.545 27.321 17.9597 29.1841 19.6106L31.9343 16.5402C30.9121 15.6414 30.268 14.3299 30.268 12.8641ZM35.159 17.7591C34.619 17.7591 34.0944 17.6665 33.6084 17.5045L32.293 21.412C33.1918 21.7128 34.1523 21.8787 35.1552 21.8787C39.5139 21.8825 43.1514 18.789 43.9961 14.6809L39.9537 13.8555C39.4947 16.0889 37.5236 17.7629 35.159 17.7591ZM35.1706 3.8496C34.1716 3.8496 33.2111 4.01161 32.3123 4.30862L33.6161 8.21994C34.106 8.05793 34.6267 7.96921 35.1667 7.96921C37.5351 7.97307 39.5101 9.65486 39.9575 11.8921L44 11.0743C43.1707 6.95859 39.5332 3.85346 35.1706 3.8496Z" fill="white"/>
</svg>
