<svg width="72" height="12" viewBox="0 0 72 12" fill="none" xmlns="http://www.w3.org/2000/svg">
<path d="M0.0113636 12V0.363621H4.60227C5.48485 0.363621 6.23674 0.532181 6.85795 0.869303C7.47917 1.20264 7.95265 1.66665 8.27841 2.26135C8.60795 2.85226 8.77273 3.53408 8.77273 4.3068C8.77273 5.07953 8.60606 5.76135 8.27273 6.35226C7.93939 6.94317 7.45644 7.40339 6.82386 7.73294C6.19508 8.06248 5.43371 8.22726 4.53977 8.22726H1.61364V6.25567H4.14205C4.61553 6.25567 5.00568 6.17423 5.3125 6.01135C5.62311 5.84468 5.85417 5.61551 6.00568 5.32385C6.16098 5.02839 6.23864 4.68938 6.23864 4.3068C6.23864 3.92044 6.16098 3.58332 6.00568 3.29544C5.85417 3.00377 5.62311 2.77839 5.3125 2.6193C5.00189 2.45642 4.60795 2.37498 4.13068 2.37498H2.47159V12H0.0113636ZM11.0327 12H8.39631L12.4134 0.363621H15.5838L19.5952 12H16.9588L14.044 3.02271H13.9531L11.0327 12ZM10.8679 7.42612H17.0952V9.34658H10.8679V7.42612ZM19.1264 0.363621H21.8821L24.5355 5.37498H24.6491L27.3026 0.363621H30.0582L25.8139 7.88635V12H23.3707V7.88635L19.1264 0.363621Z" fill="white"/>
<path d="M31.7997 12V0.363621H33.2088V6.13635H33.3452L38.5724 0.363621H40.4134L35.527 5.61362L40.4134 12H38.7088L34.6634 6.59089L33.2088 8.22726V12H31.7997ZM42.7145 12H41.2372L45.5099 0.363621H46.9645L51.2372 12H49.7599L46.2827 2.20453H46.1918L42.7145 12ZM43.2599 7.45453H49.2145V8.70453H43.2599V7.45453ZM56.6406 12H53.0497V0.363621H56.7997C57.9285 0.363621 58.8944 0.596575 59.6974 1.06248C60.5005 1.52461 61.116 2.18938 61.544 3.0568C61.9721 3.92044 62.1861 4.95453 62.1861 6.15908C62.1861 7.3712 61.9702 8.41476 61.5384 9.28976C61.1065 10.161 60.4777 10.8314 59.652 11.3011C58.8262 11.767 57.8224 12 56.6406 12ZM54.4588 10.75H56.5497C57.5118 10.75 58.3092 10.5644 58.9418 10.1932C59.5743 9.82195 60.0459 9.29355 60.3565 8.60794C60.6671 7.92233 60.8224 7.10605 60.8224 6.15908C60.8224 5.21968 60.669 4.41097 60.3622 3.73294C60.0554 3.05112 59.5971 2.52839 58.9872 2.16476C58.3774 1.79733 57.6179 1.61362 56.7088 1.61362H54.4588V10.75ZM64.5497 12V0.363621H71.5724V1.61362H65.9588V5.54544H71.2088V6.79544H65.9588V10.75H71.6634V12H64.5497Z" fill="#959595"/>
</svg>
